HIERARCHY
ROOT WRIST
{
	OFFSET 0.000000 0.000000 0.000000
	CHANNELS 6 Xposition Yposition Zposition Yrotation Xrotation Zrotation
	JOINT THUMB_CMC_FE
	{
		OFFSET -0.225143 0.117753 -0.062308
		CHANNELS 3 Yrotation Xrotation Zrotation
		JOINT THUMB_CMC_AA
		{
			OFFSET -0.212856 -0.150507 0.098851
			CHANNELS 3 Yrotation Xrotation Zrotation
			JOINT THUMB_MCP_FE
			{
				OFFSET 0.322503 -0.167445 -0.031436
				CHANNELS 3 Yrotation Xrotation Zrotation
				JOINT THUMB_IP_FE
				{
					OFFSET -0.295233 -0.236404 0.025845
					CHANNELS 3 Yrotation Xrotation Zrotation
					End Site
					{
						OFFSET 0.000000 0.000000 0.000000
					}
				}
			}
		}
	}
	JOINT INDEX_MCP
	{
		OFFSET -1.076913 0.264198 -0.014768
		CHANNELS 3 Yrotation Xrotation Zrotation
		JOINT INDEX_PIP_FE
		{
			OFFSET -0.425053 0.013289 0.013619
			CHANNELS 3 Yrotation Xrotation Zrotation
			JOINT INDEX_DIP_FE
			{
				OFFSET -0.271505 -0.024898 0.000550
				CHANNELS 3 Yrotation Xrotation Zrotation
				End Site
				{
					OFFSET 0.000000 0.000000 0.000000
				}
			}
		}
	}
	JOINT MIDDLE_MCP
	{
		OFFSET -1.072991 0.019362 0.038780
		CHANNELS 3 Yrotation Xrotation Zrotation
		JOINT MIDDLE_PIP_FE
		{
			OFFSET -0.480704 0.002618 0.028696
			CHANNELS 3 Yrotation Xrotation Zrotation
			JOINT MIDDLE_DIP_FE
			{
				OFFSET -0.307486 -0.031129 -0.000643
				CHANNELS 3 Yrotation Xrotation Zrotation
				End Site
				{
					OFFSET 0.000000 0.000000 0.000000
				}
			}
		}
	}
	JOINT RING_MCP
	{
		OFFSET -0.994992 -0.195930 -0.005938
		CHANNELS 3 Yrotation Xrotation Zrotation
		JOINT RING_PIP_FE
		{
			OFFSET -0.436995 0.003792 0.019994
			CHANNELS 3 Yrotation Xrotation Zrotation
			JOINT RING_DIP_FE
			{
				OFFSET -0.295558 -0.038341 -0.006642
				CHANNELS 3 Yrotation Xrotation Zrotation
				End Site
				{
					OFFSET 0.000000 0.000000 0.000000
				}
			}
		}
	}
	JOINT PINKY_MCP
	{
		OFFSET -0.873858 -0.393246 -0.086282
		CHANNELS 3 Yrotation Xrotation Zrotation
		JOINT PINKY_PIP_FE
		{
			OFFSET -0.343972 -0.016492 0.013445
			CHANNELS 3 Yrotation Xrotation Zrotation
			JOINT PINKY_DIP_FE
			{
				OFFSET -0.224713 -0.036309 -0.010265
				CHANNELS 3 Yrotation Xrotation Zrotation
				End Site
				{
					OFFSET 0.000000 0.000000 0.000000
				}
			}
		}
	}
}
MOTION
Frames: 9
Frame Time: 0.008333334
2.353985 3.113950 5.065528 -154.007900 -62.940190 -10.156520 -61.461180 4.834468 -64.775300 -119.352900 -30.976960 -5.991486 112.864000 -65.843230 55.402330 -4.562073 -8.459839 21.065310 141.063500 2.546390 176.855300 41.978420 -86.125550 -42.719700 2.052623 1.705009 22.662040 163.770300 -2.315338 164.734600 39.241280 -88.411560 -38.071720 6.002514 4.395436 8.037465 -167.118700 -2.248108 162.290500 31.479540 -85.617800 2.465847 -0.199310 0.562910 -4.968536 -153.293100 -3.364380 159.112000 48.977630 -83.530610 1.080961 -5.539795 0.809167 32.793190 
2.350992 3.112365 5.065601 -153.949300 -63.365050 -10.474670 -61.461180 4.834470 -64.780640 -119.352900 -30.976930 -6.005463 112.864000 -65.843260 55.401640 -4.562073 -8.459839 21.065330 141.175500 2.550942 176.862900 41.978180 -86.125610 -42.605500 2.052631 1.704992 22.669700 163.942100 -2.299713 164.946800 39.241190 -88.411190 -38.233520 6.002524 4.395450 7.511642 -166.886200 -2.186676 162.546700 31.479660 -85.617860 2.614872 -0.199310 0.562924 -4.968506 -153.208400 -3.330048 159.458900 48.977590 -83.530640 0.591145 -5.539795 0.809181 33.144370 
2.348131 3.112443 5.066271 -154.145600 -63.605590 -10.555850 -61.461180 4.834475 -64.834560 -119.352900 -30.976930 -5.948395 112.864000 -65.843260 55.368540 -4.562073 -8.459839 21.065330 141.361200 2.558497 176.455900 41.978400 -86.125550 -42.974210 2.052629 1.704984 22.358550 164.238600 -2.272705 165.047400 39.240490 -88.411560 -38.609440 6.002518 4.395440 6.933228 -166.300100 -2.031677 162.613200 31.479570 -85.617800 2.589238 -0.199310 0.562908 -4.968506 -152.971900 -3.234100 159.748300 48.977630 -83.530550 0.393379 -5.539825 0.809157 33.137130 
2.344309 3.113307 5.066308 -154.139800 -64.040860 -10.843630 -61.461180 4.834475 -64.880070 -119.352900 -30.976930 -5.899353 112.864000 -65.843260 55.336980 -4.562073 -8.459839 21.065300 141.041400 2.545484 176.388100 41.978320 -86.125610 -43.747620 2.052628 1.705018 21.713010 164.312400 -2.265961 165.152000 39.241130 -88.411440 -39.204530 6.002514 4.395443 6.383557 -165.907100 -1.927612 162.617600 31.479600 -85.617860 2.878982 -0.199310 0.562930 -4.968536 -152.568400 -3.070190 159.920500 48.977490 -83.530610 0.285217 -5.539795 0.809153 33.455540 
2.340404 3.114390 5.067238 -153.995500 -64.488430 -11.191190 -61.461180 4.834480 -64.953000 -119.352900 -30.976960 -5.884338 112.864000 -65.843260 55.332220 -4.562073 -8.459839 21.065300 140.668000 2.530174 176.385000 41.978390 -86.125610 -44.434570 2.052626 1.705013 21.255800 164.451100 -2.253296 165.383500 39.241600 -88.411560 -39.704560 6.002520 4.395433 5.713864 -165.504600 -1.820923 162.644500 31.479710 -85.617800 2.945184 -0.199310 0.562927 -4.968536 -152.256500 -2.943390 160.103000 48.977560 -83.530640 0.345762 -5.539795 0.809167 33.900720 
2.334369 3.119039 5.067592 -154.226900 -64.957400 -11.220790 -61.461180 4.834466 -64.965820 -119.352900 -30.976960 -5.803955 112.864000 -65.843260 55.346360 -4.562103 -8.459839 21.065310 140.504100 2.523399 176.202200 41.978420 -86.125670 -45.393100 2.052628 1.705013 20.383850 164.795100 -2.221832 165.482800 39.241170 -88.411440 -39.990300 6.002520 4.395446 5.329465 -165.181200 -1.735107 162.746600 31.479640 -85.617830 2.873607 -0.199310 0.562920 -4.968506 -152.020500 -2.847351 160.192100 48.977580 -83.530610 -0.243439 -5.539795 0.809163 34.033540 
2.329017 3.121717 5.067953 -153.961000 -65.347110 -11.723020 -61.461180 4.834475 -65.047790 -119.352900 -30.976960 -5.811493 112.864000 -65.843260 55.356130 -4.562073 -8.459839 21.065290 140.002700 2.502611 176.054900 41.978470 -86.125550 -45.692320 2.052627 1.704996 19.800870 164.880800 -2.213989 165.546600 39.241060 -88.411560 -40.261600 6.002519 4.395444 4.523331 -164.771400 -1.626343 162.713900 31.479600 -85.617830 3.322337 -0.199310 0.562929 -4.968506 -151.842300 -2.774811 160.152800 48.977710 -83.530580 0.016867 -5.539795 0.809164 33.602890 
2.321551 3.125205 5.067372 -153.655300 -65.865840 -12.254670 -61.461180 4.834476 -65.058990 -119.353200 -30.976900 -6.088989 112.894700 -65.839050 54.704620 -4.563843 -8.468536 21.722860 140.199500 2.515766 176.384300 41.906060 -86.119690 -45.912290 2.052444 1.703823 19.844360 165.015500 -2.196289 166.041400 39.110220 -88.406520 -40.283330 6.008663 4.435107 3.553317 -165.265500 -1.771820 163.070000 31.465010 -85.616270 3.259992 -0.199310 0.562923 -4.968536 -152.531600 -3.072632 160.460700 48.927870 -83.526250 -0.347107 -5.537628 0.807061 33.809190 
2.313179 3.130484 5.066724 -153.428100 -66.264070 -12.623410 -61.461180 4.834478 -65.070130 -119.353400 -30.976840 -6.366547 112.918600 -65.835690 54.059170 -4.565308 -8.475281 22.380550 140.396400 2.527795 176.713800 41.849720 -86.115200 -46.148410 2.052298 1.702920 19.887890 165.150400 -2.179718 166.536300 39.009360 -88.402950 -40.335080 6.012856 4.466078 2.581607 -165.760700 -1.914246 163.427500 31.453680 -85.614990 3.194250 -0.199310 0.562943 -4.968506 -153.222900 -3.366821 160.772400 48.889030 -83.522950 -0.722321 -5.535919 0.805410 34.015560 
